<svg xmlns="http://www.w3.org/2000/svg" xmlns:xlink="http://www.w3.org/1999/xlink" width="1000" zoomAndPan="magnify" viewBox="0 0 750 749.999995" height="1000" preserveAspectRatio="xMidYMid meet" version="1.0"><path fill="#fed142" d="M 360.792969 738.03125 C 272.476562 734.820312 217.8125 708.632812 203.90625 662.863281 L 202.289062 657.542969 L 202.0625 567.816406 C 201.804688 465.125 201.894531 463.042969 207.359375 446.691406 C 217.335938 416.855469 240.921875 397.617188 277.808594 389.230469 L 285.964844 387.378906 L 387.390625 386.929688 C 460.054688 386.605469 490.183594 386.242188 493.652344 385.644531 C 513.960938 382.144531 527.285156 376.898438 539.792969 367.484375 C 554.734375 356.238281 567.066406 336.988281 572.578125 316.3125 C 576.71875 300.78125 576.609375 302.476562 577.054688 247.925781 L 577.472656 197.210938 L 650.523438 197.210938 L 657.617188 199.191406 C 695.621094 209.804688 723.210938 245.808594 734.957031 300.121094 C 739.472656 321.011719 739.519531 321.785156 739.53125 375.074219 C 739.539062 426.933594 739.515625 427.386719 735.890625 444.398438 C 732.328125 461.121094 727.667969 474.726562 720.703125 488.730469 C 706.652344 516.976562 685.9375 536.089844 659.746094 544.984375 C 644.78125 550.066406 657.308594 549.640625 510.089844 550.0625 L 377.460938 550.441406 L 377.460938 574.554688 L 465.40625 574.910156 L 553.355469 575.265625 L 553.710938 618.53125 C 553.90625 642.328125 553.820312 663.839844 553.519531 666.335938 C 552.796875 672.375 550.238281 679.539062 546.574219 685.777344 C 542.800781 692.203125 531.34375 703.695312 523.566406 708.855469 C 499.945312 724.53125 463.933594 734.085938 416.46875 737.273438 C 400.5 738.34375 377.882812 738.652344 360.792969 738.03125 Z M 482.785156 681.964844 C 499.738281 679.21875 511.871094 662.625 509.078125 646.019531 C 506.769531 632.320312 496.195312 621.722656 482.574219 619.464844 C 461.78125 616.019531 442.871094 635.113281 446.574219 655.820312 C 449.265625 670.882812 461.339844 681.484375 477.109375 682.636719 C 477.695312 682.679688 480.25 682.378906 482.785156 681.964844 Z M 104.875 553.984375 C 84.925781 550.359375 65.28125 538.265625 51.398438 521.070312 C 25.105469 488.5 11.828125 434.199219 13.496094 366.023438 C 14.535156 323.535156 20.886719 292 33.804688 265.167969 C 50.460938 230.585938 75.34375 210.078125 108.933594 203.25 C 116.292969 201.753906 116.664062 201.75 246.253906 201.800781 C 317.722656 201.828125 376.71875 201.652344 377.359375 201.40625 C 378.375 201.015625 378.523438 199.433594 378.523438 188.976562 C 378.523438 182.386719 378.445312 176.917969 378.347656 176.824219 C 378.25 176.730469 338.59375 176.492188 290.222656 176.292969 L 202.273438 175.929688 L 202.089844 130.21875 C 201.890625 80.152344 201.851562 80.730469 206.136719 71.539062 C 220.996094 39.664062 264.765625 20.296875 334.90625 14.5625 C 339.976562 14.148438 353.699219 13.621094 365.402344 13.390625 C 443.054688 11.871094 500.015625 26.070312 529.957031 54.414062 C 533.273438 57.554688 537.597656 62.242188 539.5625 64.828125 C 544.035156 70.714844 549.601562 81.953125 551.730469 89.394531 L 553.355469 95.070312 L 553.355469 189.40625 C 553.355469 277.464844 553.269531 284.191406 552.074219 290.480469 C 550.527344 298.597656 546.816406 310.003906 543.722656 316.136719 C 533.011719 337.382812 513.277344 352.6875 487.117188 360.035156 C 470.132812 364.808594 477.847656 364.496094 365.402344 364.984375 C 253.734375 365.46875 260.484375 365.207031 244.828125 369.632812 C 214.421875 378.226562 192.082031 401.910156 183.007812 435.179688 C 178.929688 450.132812 179.019531 448.738281 178.574219 503.625 L 178.15625 554.695312 L 144.113281 554.8125 C 118.414062 554.898438 108.796875 554.695312 104.875 553.984375 Z M 290.78125 129.65625 C 303.6875 123.589844 311.460938 109.375 309.125 96.109375 C 306.96875 83.871094 298.566406 74.105469 287.160156 70.582031 C 268.9375 64.953125 249.921875 76.570312 246.558594 95.386719 C 243.824219 110.691406 252.675781 125.585938 267.640625 130.878906 C 270.988281 132.058594 273.136719 132.300781 278.871094 132.128906 C 285.121094 131.941406 286.539062 131.648438 290.78125 129.65625 Z M 290.78125 129.65625 " fill-opacity="1" fill-rule="nonzero"/><path fill="#3571a3" d="M 104.875 553.984375 C 84.925781 550.359375 65.28125 538.265625 51.398438 521.070312 C 25.105469 488.5 11.828125 434.199219 13.496094 366.023438 C 14.535156 323.535156 20.886719 292 33.804688 265.167969 C 50.460938 230.585938 75.34375 210.078125 108.933594 203.25 C 116.292969 201.753906 116.664062 201.75 246.253906 201.800781 C 317.722656 201.828125 376.71875 201.652344 377.359375 201.40625 C 378.375 201.015625 378.523438 199.433594 378.523438 188.976562 C 378.523438 182.386719 378.445312 176.917969 378.347656 176.824219 C 378.25 176.730469 338.59375 176.492188 290.222656 176.292969 L 202.273438 175.929688 L 202.089844 130.21875 C 201.890625 80.152344 201.851562 80.730469 206.136719 71.539062 C 220.996094 39.664062 264.765625 20.296875 334.90625 14.5625 C 339.976562 14.148438 353.699219 13.621094 365.402344 13.390625 C 443.054688 11.871094 500.015625 26.070312 529.957031 54.414062 C 533.273438 57.554688 537.597656 62.242188 539.5625 64.828125 C 544.035156 70.714844 549.601562 81.953125 551.730469 89.394531 L 553.355469 95.070312 L 553.355469 189.40625 C 553.355469 277.464844 553.269531 284.191406 552.074219 290.480469 C 550.527344 298.597656 546.816406 310.003906 543.722656 316.136719 C 533.011719 337.382812 513.277344 352.6875 487.117188 360.035156 C 470.132812 364.808594 477.847656 364.496094 365.402344 364.984375 C 253.734375 365.46875 260.484375 365.207031 244.828125 369.632812 C 214.421875 378.226562 192.082031 401.910156 183.007812 435.179688 C 178.929688 450.132812 179.019531 448.738281 178.574219 503.625 L 178.15625 554.695312 L 144.113281 554.8125 C 118.414062 554.898438 108.796875 554.695312 104.875 553.984375 Z M 290.78125 129.65625 C 303.6875 123.589844 311.460938 109.375 309.125 96.109375 C 306.96875 83.871094 298.566406 74.105469 287.160156 70.582031 C 268.9375 64.953125 249.921875 76.570312 246.558594 95.386719 C 243.824219 110.691406 252.675781 125.585938 267.640625 130.878906 C 270.988281 132.058594 273.136719 132.300781 278.871094 132.128906 C 285.121094 131.941406 286.539062 131.648438 290.78125 129.65625 Z M 290.78125 129.65625 " fill-opacity="1" fill-rule="nonzero"/></svg>